<mxfile host="app.diagrams.net" modified="2023-06-23T02:30:24.116Z" agent="Mozilla/5.0 (Windows NT 10.0; Win64; x64) AppleWebKit/537.36 (KHTML, like Gecko) Chrome/114.0.0.0 Safari/537.36 Edg/114.0.1823.51" etag="vMSIMJ_QuJY2cpjU7efv" version="21.5.0" type="github">
  <diagram name="Page-1" id="C3s-oej4XBF5FcovJ5wi">
    <mxGraphModel dx="1434" dy="827" grid="1" gridSize="10" guides="1" tooltips="1" connect="1" arrows="1" fold="1" page="1" pageScale="1" pageWidth="850" pageHeight="1100" math="0" shadow="0">
      <root>
        <mxCell id="0" />
        <mxCell id="1" parent="0" />
      </root>
    </mxGraphModel>
  </diagram>
</mxfile>
